<?xml version="1.0" encoding="UTF-8"?>
<svg width="500" height="500" version="1.1" viewBox="0 0 132.29 132.29" xmlns="http://www.w3.org/2000/svg" xmlns:xlink="http://www.w3.org/1999/xlink">
 <defs>
  <style>.cls-1{fill:#f1734d;}.cls-1,.cls-2{fill-rule:evenodd;}.cls-2{fill:#9293a5;}.cls-3{fill:#f94060;}.cls-4{fill:#96ccee;}</style>
  <style>.cls-1{fill:#5c2d91;}.cls-2,.cls-3{fill:#fff;}.cls-2{opacity:0.1;}</style>
  <linearGradient id="linearGradient6024" x1="-8.6794" x2="-8.6794" y1="178.2" y2="180.84" gradientTransform="translate(2.5438e-6 2.6458)" gradientUnits="userSpaceOnUse" spreadMethod="reflect" xlink:href="#linearGradient4983"/>
  <linearGradient id="linearGradient4983">
   <stop stop-color="#d2d2d2" offset="0"/>
   <stop stop-color="#4d4d4d" offset="1"/>
  </linearGradient>
  <linearGradient id="linearGradient6026" x1="-8.6794" x2="-8.6794" y1="178.2" y2="180.84" gradientTransform="matrix(.28253 0 0 1.0231 200.43 -133.95)" gradientUnits="userSpaceOnUse" spreadMethod="reflect" xlink:href="#linearGradient4983"/>
  <linearGradient id="linearGradient6028" x1="-8.6794" x2="-8.6794" y1="178.2" y2="180.84" gradientTransform="matrix(.086956 0 0 2 -47.612 -175.55)" gradientUnits="userSpaceOnUse" spreadMethod="reflect" xlink:href="#linearGradient4983"/>
 </defs>
 <g transform="matrix(.99999 0 0 .99999 74.824 -164.97)">
  <g transform="translate(-2.5895e-6 4.4367e-6)">
   <g fill="#fff">
    <rect x="-69.534" y="170.26" width="121.71" height="121.71" ry="4.1132e-13" fill-opacity=".12626"/>
    <rect x="-74.825" y="164.97" width="132.29" height="132.29" ry="4.4708e-13" fill-opacity=".090909"/>
   </g>
  </g>
  <g>
   <g fill="#666" stroke="#000" stroke-linecap="round" stroke-linejoin="round">
    <g stroke-width=".19345">
     <ellipse cx="-64.037" cy="264.33" rx="5.8761" ry="5.7321"/>
     <ellipse cx="-57.181" cy="269.11" rx="5.8761" ry="5.7321"/>
     <ellipse cx="-63.057" cy="268.16" rx="5.8761" ry="5.7321"/>
     <ellipse cx="-52.284" cy="260.51" rx="5.8761" ry="5.7321"/>
     <ellipse cx="-48.367" cy="268.16" rx="5.8761" ry="5.7321"/>
     <ellipse cx="-53.264" cy="271.02" rx="5.8761" ry="5.7321"/>
     <ellipse cx="-30.739" cy="264.33" rx="5.8761" ry="5.7321"/>
     <ellipse cx="-44.449" cy="258.6" rx="5.8761" ry="5.7321"/>
     <ellipse cx="-42.491" cy="269.11" rx="5.8761" ry="5.7321"/>
     <ellipse cx="-38.573" cy="261.47" rx="5.8761" ry="5.7321"/>
     <ellipse cx="-34.656" cy="271.02" rx="5.8761" ry="5.7321"/>
     <ellipse cx="-56.202" cy="263.38" rx="5.8761" ry="5.7321"/>
    </g>
    <g stroke-width=".19345">
     <ellipse cx="-30.912" cy="263.3" rx="5.8761" ry="5.7321"/>
     <ellipse cx="-24.057" cy="268.08" rx="5.8761" ry="5.7321"/>
     <ellipse cx="-29.933" cy="267.13" rx="5.8761" ry="5.7321"/>
     <ellipse cx="-19.16" cy="259.48" rx="5.8761" ry="5.7321"/>
     <ellipse cx="-15.243" cy="267.13" rx="5.8761" ry="5.7321"/>
     <ellipse cx="-20.139" cy="269.99" rx="5.8761" ry="5.7321"/>
     <ellipse cx="2.3857" cy="263.3" rx="5.8761" ry="5.7321"/>
     <ellipse cx="-11.325" cy="257.57" rx="5.8761" ry="5.7321"/>
     <ellipse cx="-9.3665" cy="268.08" rx="5.8761" ry="5.7321"/>
     <ellipse cx="-5.4491" cy="260.44" rx="5.8761" ry="5.7321"/>
     <ellipse cx="-1.5317" cy="269.99" rx="5.8761" ry="5.7321"/>
     <ellipse cx="-23.077" cy="262.35" rx="5.8761" ry="5.7321"/>
     <ellipse cx="8.2934" cy="262.86" rx="5.8761" ry="5.7321"/>
     <ellipse cx="15.149" cy="267.64" rx="5.8761" ry="5.7321"/>
     <ellipse cx="9.2728" cy="266.68" rx="5.8761" ry="5.7321"/>
     <ellipse cx="20.046" cy="259.04" rx="5.8761" ry="5.7321"/>
     <ellipse cx="23.963" cy="266.68" rx="5.8761" ry="5.7321"/>
     <ellipse cx="19.066" cy="269.55" rx="5.8761" ry="5.7321"/>
     <ellipse cx="41.591" cy="262.86" rx="5.8761" ry="5.7321"/>
     <ellipse cx="27.88" cy="257.13" rx="5.8761" ry="5.7321"/>
     <ellipse cx="29.839" cy="267.64" rx="5.8761" ry="5.7321"/>
     <ellipse cx="33.757" cy="260" rx="5.8761" ry="5.7321"/>
     <ellipse cx="37.674" cy="269.55" rx="5.8761" ry="5.7321"/>
     <ellipse cx="16.128" cy="261.91" rx="5.8761" ry="5.7321"/>
     <ellipse cx="15.338" cy="253.75" rx="5.8761" ry="5.7321"/>
     <ellipse cx="22.194" cy="258.53" rx="5.8761" ry="5.7321"/>
     <ellipse cx="16.318" cy="257.57" rx="5.8761" ry="5.7321"/>
     <ellipse cx="27.091" cy="249.93" rx="5.8761" ry="5.7321"/>
     <ellipse cx="31.008" cy="257.57" rx="5.8761" ry="5.7321"/>
     <ellipse cx="26.111" cy="260.44" rx="5.8761" ry="5.7321"/>
     <ellipse cx="48.636" cy="253.75" rx="5.8761" ry="5.7321"/>
     <ellipse cx="34.926" cy="248.02" rx="5.8761" ry="5.7321"/>
     <ellipse cx="36.884" cy="258.53" rx="5.8761" ry="5.7321"/>
     <ellipse cx="40.802" cy="250.88" rx="5.8761" ry="5.7321"/>
     <ellipse cx="44.719" cy="260.44" rx="5.8761" ry="5.7321"/>
     <ellipse cx="23.173" cy="252.8" rx="5.8761" ry="5.7321"/>
     <ellipse cx="-21.703" cy="253.75" rx="5.8761" ry="5.7321"/>
     <ellipse cx="-14.848" cy="258.53" rx="5.8761" ry="5.7321"/>
     <ellipse cx="-20.724" cy="257.57" rx="5.8761" ry="5.7321"/>
     <ellipse cx="-9.951" cy="249.93" rx="5.8761" ry="5.7321"/>
     <ellipse cx="-6.0336" cy="257.57" rx="5.8761" ry="5.7321"/>
     <ellipse cx="-10.93" cy="260.44" rx="5.8761" ry="5.7321"/>
     <ellipse cx="11.595" cy="253.75" rx="5.8761" ry="5.7321"/>
     <ellipse cx="-2.1161" cy="248.02" rx="5.8761" ry="5.7321"/>
     <ellipse cx="-.15743" cy="258.53" rx="5.8761" ry="5.7321"/>
     <ellipse cx="3.76" cy="250.88" rx="5.8761" ry="5.7321"/>
     <ellipse cx="7.6774" cy="260.44" rx="5.8761" ry="5.7321"/>
     <ellipse cx="-13.868" cy="252.8" rx="5.8761" ry="5.7321"/>
     <ellipse cx="46.986" cy="268.67" rx="5.8761" ry="5.7321"/>
     <ellipse cx="-29.743" cy="258.09" rx="5.8761" ry="5.7321"/>
     <ellipse cx="-42.973" cy="268.67" rx="5.8761" ry="5.7321"/>
     <ellipse cx="-.63922" cy="263.38" rx="5.8761" ry="5.7321"/>
    </g>
   </g>
   <g transform="translate(15.194 45.765)">
    <ellipse cx="-31.811" cy="209.16" rx="5.8761" ry="5.7321" fill="#c95203" stroke="#000" stroke-linecap="round" stroke-linejoin="round" stroke-width=".19345"/>
    <text transform="scale(.89339 1.1193)" x="-35.627094" y="189.07158" fill="#ffffff" font-family="sans-serif" font-size="6.3631px" letter-spacing="0px" stroke-width=".15908" text-align="center" text-anchor="middle" word-spacing="0px" style="line-height:1.25" xml:space="preserve"><tspan x="-35.627094" y="189.07158" fill="#ffffff" font-family="Bahnschrift" font-size="6.3631px" stroke-width=".15908" text-align="center" text-anchor="middle" style="font-feature-settings:normal;font-variant-caps:normal;font-variant-ligatures:normal;font-variant-numeric:normal">&lt;/&gt;</tspan></text>
   </g>
   <g transform="translate(52.235 51.057)">
    <ellipse cx="-31.811" cy="209.16" rx="5.8761" ry="5.7321" fill="#c95203" stroke="#000" stroke-linecap="round" stroke-linejoin="round" stroke-width=".19345"/>
    <text transform="scale(.89339 1.1193)" x="-35.627094" y="189.07158" fill="#ffffff" font-family="sans-serif" font-size="6.3631px" letter-spacing="0px" stroke-width=".15908" text-align="center" text-anchor="middle" word-spacing="0px" style="line-height:1.25" xml:space="preserve"><tspan x="-35.627094" y="189.07158" fill="#ffffff" font-family="Bahnschrift" font-size="6.3631px" stroke-width=".15908" text-align="center" text-anchor="middle" style="font-feature-settings:normal;font-variant-caps:normal;font-variant-ligatures:normal;font-variant-numeric:normal">&lt;/&gt;</tspan></text>
   </g>
   <g transform="translate(31.069 45.765)">
    <ellipse cx="-31.811" cy="209.16" rx="5.8761" ry="5.7321" fill="#c95203" stroke="#000" stroke-linecap="round" stroke-linejoin="round" stroke-width=".19345"/>
    <text transform="scale(.89339 1.1193)" x="-35.627094" y="189.07158" fill="#ffffff" font-family="sans-serif" font-size="6.3631px" letter-spacing="0px" stroke-width=".15908" text-align="center" text-anchor="middle" word-spacing="0px" style="line-height:1.25" xml:space="preserve"><tspan x="-35.627094" y="189.07158" fill="#ffffff" font-family="Bahnschrift" font-size="6.3631px" stroke-width=".15908" text-align="center" text-anchor="middle" style="font-feature-settings:normal;font-variant-caps:normal;font-variant-ligatures:normal;font-variant-numeric:normal">&lt;/&gt;</tspan></text>
   </g>
   <g transform="translate(65.465 43.119)">
    <ellipse cx="-31.811" cy="209.16" rx="5.8761" ry="5.7321" fill="#c95203" stroke="#000" stroke-linecap="round" stroke-linejoin="round" stroke-width=".19345"/>
    <text transform="scale(.89339 1.1193)" x="-35.627094" y="189.07158" fill="#ffffff" font-family="sans-serif" font-size="6.3631px" letter-spacing="0px" stroke-width=".15908" text-align="center" text-anchor="middle" word-spacing="0px" style="line-height:1.25" xml:space="preserve"><tspan x="-35.627094" y="189.07158" fill="#ffffff" font-family="Bahnschrift" font-size="6.3631px" stroke-width=".15908" text-align="center" text-anchor="middle" style="font-feature-settings:normal;font-variant-caps:normal;font-variant-ligatures:normal;font-variant-numeric:normal">&lt;/&gt;</tspan></text>
   </g>
  </g>
  <g stroke="#000" stroke-linecap="round" stroke-linejoin="round">
   <rect x="-69.534" y="178.2" width="121.71" height="5.2917" ry="4.4708e-13" fill="url(#linearGradient6024)" stroke-width=".26458"/>
   <rect x="-61.565" y="257.65" width="31.689" height="22.378" rx="1.7912e-6" ry="5.6366e-7" fill="#c95203" stroke-width=".16147"/>
   <path transform="matrix(.26458 0 0 .26458 4.5498 78.978)" d="m-290 335v480h480v-480zm20 20h440v370h-440z" fill="#fc7b24" stroke-width="2"/>
  </g>
  <g transform="translate(66.207 -.06118)">
   <g stroke="#000">
    <g transform="translate(2.5847 .061179)" stroke-linecap="round" stroke-linejoin="round">
     <rect transform="rotate(90)" x="180.78" y="45.66" width="34.386" height="5.414" ry="4.5742e-13" fill="url(#linearGradient6026)" stroke-width=".14225"/>
     <rect x="-53.659" y="175.55" width="10.583" height="10.583" rx="2.6458" ry="2.6458" fill="url(#linearGradient6028)" stroke-width=".11034"/>
    </g>
    <g transform="translate(-5.3333e-7 2.6458)">
     <path d="m-48.367 209.95-7.9375 10.583 1e-6 2.6458 2.6458 2.6458 5.2917 2.6458-5.2917-7.9375 7.9375-5.2917z" fill="#666" stroke-width=".26458px"/>
     <path d="m-43.075 209.95 7.9375 10.583-1e-6 2.6458-2.6458 2.6458-5.2917 2.6458 5.2917-7.9375-7.9375-5.2917z" fill="#666" stroke-width=".26458px"/>
     <g fill="#fc7b24" stroke-linecap="round" stroke-linejoin="round" stroke-width=".52917">
      <ellipse cx="-45.787" cy="212.53" rx="5.2271" ry="5.2271"/>
      <ellipse cx="-54.981" cy="220.53" rx="2.5813" ry="2.5813"/>
      <ellipse transform="scale(-1,1)" cx="36.461" cy="220.53" rx="2.5813" ry="2.5813"/>
     </g>
    </g>
   </g>
  </g>
  <text transform="scale(.92361 1.0827)" x="-49.231968" y="248.6947" fill="#ffffff" font-family="sans-serif" font-size="13.49px" letter-spacing="0px" stroke-width=".33725" text-align="center" text-anchor="middle" word-spacing="0px" style="line-height:1.25" xml:space="preserve"><tspan x="-49.231968" y="248.6947" fill="#ffffff" font-family="Bahnschrift" font-size="13.49px" stroke-width=".33725" text-align="center" text-anchor="middle" style="font-feature-settings:normal;font-variant-caps:normal;font-variant-ligatures:normal;font-variant-numeric:normal">XML</tspan></text>
 </g>
</svg>
