<?xml version="1.0" encoding="UTF-8" standalone="no"?>
<!-- Created with Inkscape (http://www.inkscape.org/) -->

<svg
   xmlns:dc="http://purl.org/dc/elements/1.1/"
   xmlns:cc="http://creativecommons.org/ns#"
   xmlns:rdf="http://www.w3.org/1999/02/22-rdf-syntax-ns#"
   xmlns:svg="http://www.w3.org/2000/svg"
   xmlns="http://www.w3.org/2000/svg"
   xmlns:xlink="http://www.w3.org/1999/xlink"
   xmlns:sodipodi="http://sodipodi.sourceforge.net/DTD/sodipodi-0.dtd"
   xmlns:inkscape="http://www.inkscape.org/namespaces/inkscape"
   width="800"
   height="200"
   viewBox="0 0 211.66666 52.916668"
   version="1.1"
   id="svg8"
   inkscape:version="0.92.4 (5da689c313, 2019-01-14)"
   sodipodi:docname="Banner.svg"
   inkscape:export-filename="D:\Repositories\FluentSerializer\doc\logo\banner.png"
   inkscape:export-xdpi="119.999"
   inkscape:export-ydpi="119.999">
  <defs
     id="defs2">
    <linearGradient
       inkscape:collect="always"
       id="linearGradient2420">
      <stop
         style="stop-color:#ffffff;stop-opacity:0.39215687"
         offset="0"
         id="stop2416" />
      <stop
         id="stop2430"
         offset="0.33333334"
         style="stop-color:#ffffff;stop-opacity:0" />
      <stop
         id="stop2424"
         offset="0.66666669"
         style="stop-color:#ffffff;stop-opacity:0.39215687" />
      <stop
         style="stop-color:#ffffff;stop-opacity:0"
         offset="1"
         id="stop2426" />
    </linearGradient>
    <style
       id="style4543">.cls-1{fill:#f1734d;}.cls-1,.cls-2{fill-rule:evenodd;}.cls-2{fill:#9293a5;}.cls-3{fill:#f94060;}.cls-4{fill:#96ccee;}</style>
    <style
       id="style4620">.cls-1{fill:#5c2d91;}.cls-2,.cls-3{fill:#fff;}.cls-2{opacity:0.1;}</style>
    <style
       id="style4543-2">.cls-1{fill:#f1734d;}.cls-1,.cls-2{fill-rule:evenodd;}.cls-2{fill:#9293a5;}.cls-3{fill:#f94060;}.cls-4{fill:#96ccee;}</style>
    <style
       id="style4620-4">.cls-1{fill:#5c2d91;}.cls-2,.cls-3{fill:#fff;}.cls-2{opacity:0.1;}</style>
    <style
       id="style4543-1">.cls-1{fill:#f1734d;}.cls-1,.cls-2{fill-rule:evenodd;}.cls-2{fill:#9293a5;}.cls-3{fill:#f94060;}.cls-4{fill:#96ccee;}</style>
    <style
       id="style4620-5">.cls-1{fill:#5c2d91;}.cls-2,.cls-3{fill:#fff;}.cls-2{opacity:0.1;}</style>
    <linearGradient
       inkscape:collect="always"
       xlink:href="#linearGradient2420"
       id="linearGradient2422"
       x1="17.439337"
       y1="221.22908"
       x2="18.475008"
       y2="222.26476"
       gradientUnits="userSpaceOnUse"
       spreadMethod="reflect"
       gradientTransform="matrix(3.7795276,0,0,3.7795276,-65.912454,-836.14141)" />
    <pattern
       patternUnits="userSpaceOnUse"
       width="36.870568"
       height="36.870568"
       patternTransform="matrix(0.26458333,0,0,0.26458333,17.439337,221.22908)"
       id="pattern2432">
      <rect
         y="0"
         x="0"
         height="36.870567"
         width="36.870567"
         id="rect2414"
         style="opacity:1;vector-effect:none;fill:url(#linearGradient2422);fill-opacity:1;stroke:none;stroke-width:0.50199997;stroke-linecap:round;stroke-linejoin:round;stroke-miterlimit:4;stroke-dasharray:none;stroke-dashoffset:0;stroke-opacity:1;paint-order:markers fill stroke" />
    </pattern>
    <filter
       inkscape:collect="always"
       style="color-interpolation-filters:sRGB"
       id="filter2550"
       x="-0.0013242827"
       width="1.0026486"
       y="-0.012786489"
       height="1.025573">
      <feGaussianBlur
         inkscape:collect="always"
         stdDeviation="0.078245008"
         id="feGaussianBlur2552" />
    </filter>
  </defs>
  <sodipodi:namedview
     id="base"
     pagecolor="#0d1117"
     bordercolor="#666666"
     borderopacity="1.0"
     inkscape:pageopacity="1"
     inkscape:pageshadow="2"
     inkscape:zoom="0.7"
     inkscape:cx="395.84065"
     inkscape:cy="-218.68183"
     inkscape:document-units="mm"
     inkscape:current-layer="layer1"
     showgrid="false"
     units="px"
     inkscape:pagecheckerboard="true"
     inkscape:window-width="1920"
     inkscape:window-height="1001"
     inkscape:window-x="-9"
     inkscape:window-y="-9"
     inkscape:window-maximized="1"
     inkscape:lockguides="true" />
  <metadata
     id="metadata5">
    <rdf:RDF>
      <cc:Work
         rdf:about="">
        <dc:format>image/svg+xml</dc:format>
        <dc:type
           rdf:resource="http://purl.org/dc/dcmitype/StillImage" />
        <dc:title></dc:title>
      </cc:Work>
    </rdf:RDF>
  </metadata>
  <g
     inkscape:label="Layer 1"
     inkscape:groupmode="layer"
     id="layer1"
     transform="translate(0,-244.08332)">
    <g
       inkscape:export-ydpi="119.999"
       inkscape:export-xdpi="119.999"
       inkscape:label="Logo-default"
       style="image-rendering:optimizeQuality"
       transform="translate(-5.4313021,176.72797)"
       id="Logo-default">
      <title
         id="title6425">Logo-default</title>
      <g
         transform="translate(1.8171629,7.8307271)"
         id="g4731">
        <rect
           style="opacity:1;vector-effect:none;fill:#000000;fill-opacity:0;stroke:none;stroke-width:2;stroke-linecap:round;stroke-linejoin:round;stroke-miterlimit:4;stroke-dasharray:none;stroke-dashoffset:0;stroke-opacity:1;paint-order:markers fill stroke"
           id="use4717"
           width="17.197916"
           height="17.197916"
           x="10.103154"
           y="65.477753" />
      </g>
      <g
         transform="translate(25.629661,7.8307271)"
         id="g5626">
        <rect
           style="opacity:1;vector-effect:none;fill:#000000;fill-opacity:0;stroke:none;stroke-width:2;stroke-linecap:round;stroke-linejoin:round;stroke-miterlimit:4;stroke-dasharray:none;stroke-dashoffset:0;stroke-opacity:1;paint-order:markers fill stroke"
           id="use5624"
           width="17.197916"
           height="17.197916"
           x="10.103154"
           y="65.477753" />
      </g>
      <g
         transform="translate(13.723412,19.736975)"
         id="g5634">
        <rect
           style="opacity:1;vector-effect:none;fill:#000000;fill-opacity:0;stroke:none;stroke-width:2;stroke-linecap:round;stroke-linejoin:round;stroke-miterlimit:4;stroke-dasharray:none;stroke-dashoffset:0;stroke-opacity:1;paint-order:markers fill stroke"
           id="use5632"
           width="17.197916"
           height="17.197916"
           x="10.103154"
           y="65.477753" />
      </g>
      <g
         transform="translate(1.8171629,31.643222)"
         id="g5642">
        <rect
           style="opacity:1;vector-effect:none;fill:#000000;fill-opacity:0;stroke:none;stroke-width:2;stroke-linecap:round;stroke-linejoin:round;stroke-miterlimit:4;stroke-dasharray:none;stroke-dashoffset:0;stroke-opacity:1;paint-order:markers fill stroke"
           id="use5640"
           width="17.197916"
           height="17.197916"
           x="10.103154"
           y="65.477753" />
      </g>
      <g
         transform="translate(25.629661,31.643222)"
         id="g5650">
        <rect
           style="opacity:1;vector-effect:none;fill:#000000;fill-opacity:0;stroke:none;stroke-width:2;stroke-linecap:round;stroke-linejoin:round;stroke-miterlimit:4;stroke-dasharray:none;stroke-dashoffset:0;stroke-opacity:1;paint-order:markers fill stroke"
           id="use5648"
           width="17.197916"
           height="17.197916"
           x="10.103154"
           y="65.477753" />
      </g>
      <g
         transform="matrix(0.26458333,0,0,0.26458333,13.110942,73.573064)"
         id="g5715">
        <path
           style="clip-rule:evenodd;fill:#3c8cea;fill-rule:evenodd"
           inkscape:connector-curvature="0"
           d="M 5.112,0.011 C 2.31,0.011 0.039,2.284 0.039,5.085 V 58.926 C 0.039,61.729 2.311,64 5.112,64 h 45.775 c 2.801,0 5.074,-2.271 5.074,-5.074 V 20.321 L 37.057,0.011 Z"
           id="path5705" />
        <path
           style="fill:#ffffff"
           inkscape:connector-curvature="0"
           d="m 10.133,37.439 h 21.564 v 2.059 H 10.133 Z m 0,4.801 h 21.564 v 2.057 H 10.133 Z m 0,4.801 h 21.564 v 2.057 H 10.133 Z m 0,4.8 h 12.233 v 2.058 H 10.133 Z"
           id="path5707" />
        <g
           style="clip-rule:evenodd;fill-rule:evenodd"
           id="g5713">
          <path
             style="fill:#2d6fe4"
             inkscape:connector-curvature="0"
             d="m 55.96,20.377 v 1 H 43.161 c 0,0 -6.312,-1.26 -6.129,-6.707 0,0 0.208,5.707 6.004,5.707 z"
             id="path5709" />
          <path
             style="opacity:0.5;fill:#ffffff"
             inkscape:connector-curvature="0"
             d="m 37.058,0.025 v 14.561 c 0,1.656 1.104,5.791 6.104,5.791 h 12.799 z"
             id="path5711" />
        </g>
      </g>
      <g
         id="g5727"
         transform="matrix(0.26458333,0,0,0.26458333,36.92344,97.118066)">
        <path
           id="path5717"
           d="M 5.112,0.011 C 2.31,0.011 0.039,2.284 0.039,5.085 V 58.926 C 0.039,61.729 2.311,64 5.112,64 h 45.775 c 2.801,0 5.074,-2.271 5.074,-5.074 V 20.321 L 37.057,0.011 Z"
           inkscape:connector-curvature="0"
           style="clip-rule:evenodd;fill:#3c8cea;fill-rule:evenodd" />
        <path
           id="path5719"
           d="m 10.133,37.439 h 21.564 v 2.059 H 10.133 Z m 0,4.801 h 21.564 v 2.057 H 10.133 Z m 0,4.801 h 21.564 v 2.057 H 10.133 Z m 0,4.8 h 12.233 v 2.058 H 10.133 Z"
           inkscape:connector-curvature="0"
           style="fill:#ffffff" />
        <g
           id="g5725"
           style="clip-rule:evenodd;fill-rule:evenodd">
          <path
             id="path5721"
             d="m 55.96,20.377 v 1 H 43.161 c 0,0 -6.312,-1.26 -6.129,-6.707 0,0 0.208,5.707 6.004,5.707 z"
             inkscape:connector-curvature="0"
             style="fill:#2d6fe4" />
          <path
             id="path5723"
             d="m 37.058,0.025 v 14.561 c 0,1.656 1.104,5.791 6.104,5.791 h 12.799 z"
             inkscape:connector-curvature="0"
             style="opacity:0.5;fill:#ffffff" />
        </g>
      </g>
      <g
         transform="translate(-55.320715,22.735801)"
         id="g5757">
        <g
           id="g5755">
          <g
             transform="translate(2.5413227,0.13374666)"
             id="g5753">
            <g
               id="g5737"
               transform="matrix(0.26458333,0,0,0.26458333,65.888218,74.258307)">
              <path
                 id="path5729"
                 d="m 5.113,-0.026 c -2.803,0 -5.074,2.272 -5.074,5.074 v 53.841 c 0,2.803 2.271,5.074 5.074,5.074 h 45.773 c 2.801,0 5.074,-2.271 5.074,-5.074 V 20.284 L 37.059,-0.026 c 0,0 -31.946,0 -31.946,0 z"
                 inkscape:connector-curvature="0"
                 style="fill:#673ab7" />
              <path
                 id="path5731"
                 d="m 55.977,20.352 v 1 H 43.178 c 0,0 -6.312,-1.26 -6.129,-6.707 0,0 0.208,5.707 6.004,5.707 z"
                 inkscape:connector-curvature="0"
                 style="fill:#45317c" />
              <path
                 id="path5733"
                 d="m 37.074,0 v 14.561 c 0,1.656 1.104,5.791 6.104,5.791 h 12.799 z"
                 enable-background="new    "
                 inkscape:connector-curvature="0"
                 style="opacity:0.5;fill:#ffffff" />
              <path
                 id="path5735"
                 d="m 12.739,39.41 c 0,-0.4 -0.3,-0.7 -0.7,-0.7 h -1.3 c -0.4,0 -0.7,0.3 -0.7,0.7 v 1.3 c 0,0.4 0.3,0.7 0.7,0.7 h 1.3 c 0.4,0 0.7,-0.3 0.7,-0.7 z m 18.8,0 c 0,-0.4 -0.3,-0.7 -0.7,-0.7 h -15.7 c -0.4,0 -0.7,0.3 -0.7,0.7 v 1.3 c 0,0.4 0.3,0.7 0.7,0.7 h 15.7 c 0.4,0 0.7,-0.3 0.7,-0.7 z m -18.8,6.3 c 0,-0.4 -0.3,-0.7 -0.7,-0.7 h -1.3 c -0.4,0 -0.7,0.3 -0.7,0.7 v 1.3 c 0,0.4 0.3,0.7 0.7,0.7 h 1.3 c 0.4,0 0.7,-0.3 0.7,-0.7 z m 18.8,0 c 0,-0.4 -0.4,-0.7 -0.8,-0.7 h -15.5 c -0.4,0 -0.8,0.3 -0.8,0.7 v 1.3 c 0,0.4 0.4,0.7 0.8,0.7 h 15.5 c 0.4,0 0.8,-0.3 0.8,-0.7 z m -18.8,6.2 c 0,-0.4 -0.3,-0.7 -0.7,-0.7 h -1.3 c -0.4,0 -0.7,0.3 -0.7,0.7 v 1.3 c 0,0.4 0.3,0.7 0.7,0.7 h 1.3 c 0.4,0 0.7,-0.3 0.7,-0.7 z m 18.8,0 c 0,-0.4 -0.3,-0.7 -0.7,-0.7 h -15.7 c -0.4,0 -0.7,0.3 -0.7,0.7 v 1.3 c 0,0.4 0.3,0.7 0.7,0.7 h 15.7 c 0.4,0 0.7,-0.3 0.7,-0.7 z"
                 inkscape:connector-curvature="0"
                 style="fill:#ffffff" />
            </g>
            <g
               id="g5751"
               transform="matrix(0.13072354,0,0,0.13072354,66.565577,82.103996)">
              <circle
                 id="circle5739"
                 r="32"
                 cy="32"
                 cx="32"
                 class="cls-1"
                 style="fill:#5c2d91" />
              <path
                 id="path5741"
                 d="M 9.82,9 A 32,32 0 1 0 55,54.18 Z"
                 class="cls-2"
                 inkscape:connector-curvature="0"
                 style="opacity:0.1;fill:#ffffff" />
              <path
                 id="path5743"
                 d="m 7.4,41.25 a 1.35,1.35 0 0 1 -1,-0.42 1.38,1.38 0 0 1 -0.41,-1 1.4,1.4 0 0 1 0.41,-1 1.34,1.34 0 0 1 1,-0.43 1.37,1.37 0 0 1 1,0.43 1.39,1.39 0 0 1 0.42,1 1.37,1.37 0 0 1 -0.42,1 1.38,1.38 0 0 1 -1,0.42 z"
                 class="cls-3"
                 inkscape:connector-curvature="0"
                 style="fill:#ffffff" />
              <path
                 id="path5745"
                 d="M 27.27,41 H 24.65 L 15.28,26.46 A 6.06,6.06 0 0 1 14.7,25.32 h -0.08 a 18.71,18.71 0 0 1 0.1,2.5 V 41 H 12.59 V 22.77 h 2.77 l 9.12,14.28 q 0.57,0.89 0.74,1.22 h 0.05 A 19.29,19.29 0 0 1 25.14,35.59 V 22.77 h 2.13 z"
                 class="cls-3"
                 inkscape:connector-curvature="0"
                 style="fill:#ffffff" />
              <path
                 id="path5747"
                 d="M 41.69,41 H 32 V 22.77 h 9.24 v 1.93 h -7.06 v 6.06 h 6.58 v 1.92 H 34.18 V 39 h 7.52 z"
                 class="cls-3"
                 inkscape:connector-curvature="0"
                 style="fill:#ffffff" />
              <path
                 id="path5749"
                 d="M 56,24.7 H 50.7 V 41 H 48.57 V 24.7 H 43.33 V 22.77 H 56 Z"
                 class="cls-3"
                 inkscape:connector-curvature="0"
                 style="fill:#ffffff" />
            </g>
          </g>
        </g>
      </g>
      <g
         transform="translate(-31.508217,-0.80920035)"
         id="g5787">
        <g
           id="g5785">
          <g
             transform="translate(2.5413227,0.13374666)"
             id="g5783">
            <g
               id="g5767"
               transform="matrix(0.26458333,0,0,0.26458333,65.888218,74.258307)">
              <path
                 id="path5759"
                 d="m 5.113,-0.026 c -2.803,0 -5.074,2.272 -5.074,5.074 v 53.841 c 0,2.803 2.271,5.074 5.074,5.074 h 45.773 c 2.801,0 5.074,-2.271 5.074,-5.074 V 20.284 L 37.059,-0.026 c 0,0 -31.946,0 -31.946,0 z"
                 inkscape:connector-curvature="0"
                 style="fill:#673ab7" />
              <path
                 id="path5761"
                 d="m 55.977,20.352 v 1 H 43.178 c 0,0 -6.312,-1.26 -6.129,-6.707 0,0 0.208,5.707 6.004,5.707 z"
                 inkscape:connector-curvature="0"
                 style="fill:#45317c" />
              <path
                 id="path5763"
                 d="m 37.074,0 v 14.561 c 0,1.656 1.104,5.791 6.104,5.791 h 12.799 z"
                 enable-background="new    "
                 inkscape:connector-curvature="0"
                 style="opacity:0.5;fill:#ffffff" />
              <path
                 id="path5765"
                 d="m 12.739,39.41 c 0,-0.4 -0.3,-0.7 -0.7,-0.7 h -1.3 c -0.4,0 -0.7,0.3 -0.7,0.7 v 1.3 c 0,0.4 0.3,0.7 0.7,0.7 h 1.3 c 0.4,0 0.7,-0.3 0.7,-0.7 z m 18.8,0 c 0,-0.4 -0.3,-0.7 -0.7,-0.7 h -15.7 c -0.4,0 -0.7,0.3 -0.7,0.7 v 1.3 c 0,0.4 0.3,0.7 0.7,0.7 h 15.7 c 0.4,0 0.7,-0.3 0.7,-0.7 z m -18.8,6.3 c 0,-0.4 -0.3,-0.7 -0.7,-0.7 h -1.3 c -0.4,0 -0.7,0.3 -0.7,0.7 v 1.3 c 0,0.4 0.3,0.7 0.7,0.7 h 1.3 c 0.4,0 0.7,-0.3 0.7,-0.7 z m 18.8,0 c 0,-0.4 -0.4,-0.7 -0.8,-0.7 h -15.5 c -0.4,0 -0.8,0.3 -0.8,0.7 v 1.3 c 0,0.4 0.4,0.7 0.8,0.7 h 15.5 c 0.4,0 0.8,-0.3 0.8,-0.7 z m -18.8,6.2 c 0,-0.4 -0.3,-0.7 -0.7,-0.7 h -1.3 c -0.4,0 -0.7,0.3 -0.7,0.7 v 1.3 c 0,0.4 0.3,0.7 0.7,0.7 h 1.3 c 0.4,0 0.7,-0.3 0.7,-0.7 z m 18.8,0 c 0,-0.4 -0.3,-0.7 -0.7,-0.7 h -15.7 c -0.4,0 -0.7,0.3 -0.7,0.7 v 1.3 c 0,0.4 0.3,0.7 0.7,0.7 h 15.7 c 0.4,0 0.7,-0.3 0.7,-0.7 z"
                 inkscape:connector-curvature="0"
                 style="fill:#ffffff" />
            </g>
            <g
               id="g5781"
               transform="matrix(0.13072354,0,0,0.13072354,66.565577,82.103996)">
              <circle
                 id="circle5769"
                 r="32"
                 cy="32"
                 cx="32"
                 class="cls-1"
                 style="fill:#5c2d91" />
              <path
                 id="path5771"
                 d="M 9.82,9 A 32,32 0 1 0 55,54.18 Z"
                 class="cls-2"
                 inkscape:connector-curvature="0"
                 style="opacity:0.1;fill:#ffffff" />
              <path
                 id="path5773"
                 d="m 7.4,41.25 a 1.35,1.35 0 0 1 -1,-0.42 1.38,1.38 0 0 1 -0.41,-1 1.4,1.4 0 0 1 0.41,-1 1.34,1.34 0 0 1 1,-0.43 1.37,1.37 0 0 1 1,0.43 1.39,1.39 0 0 1 0.42,1 1.37,1.37 0 0 1 -0.42,1 1.38,1.38 0 0 1 -1,0.42 z"
                 class="cls-3"
                 inkscape:connector-curvature="0"
                 style="fill:#ffffff" />
              <path
                 id="path5775"
                 d="M 27.27,41 H 24.65 L 15.28,26.46 A 6.06,6.06 0 0 1 14.7,25.32 h -0.08 a 18.71,18.71 0 0 1 0.1,2.5 V 41 H 12.59 V 22.77 h 2.77 l 9.12,14.28 q 0.57,0.89 0.74,1.22 h 0.05 A 19.29,19.29 0 0 1 25.14,35.59 V 22.77 h 2.13 z"
                 class="cls-3"
                 inkscape:connector-curvature="0"
                 style="fill:#ffffff" />
              <path
                 id="path5777"
                 d="M 41.69,41 H 32 V 22.77 h 9.24 v 1.93 h -7.06 v 6.06 h 6.58 v 1.92 H 34.18 V 39 h 7.52 z"
                 class="cls-3"
                 inkscape:connector-curvature="0"
                 style="fill:#ffffff" />
              <path
                 id="path5779"
                 d="M 56,24.7 H 50.7 V 41 H 48.57 V 24.7 H 43.33 V 22.77 H 56 Z"
                 class="cls-3"
                 inkscape:connector-curvature="0"
                 style="fill:#ffffff" />
            </g>
          </g>
        </g>
      </g>
      <g
         style="fill:#000000"
         transform="matrix(0.04903723,0.18300946,-0.18300946,0.04903723,42.521799,88.203932)"
         id="g6191">
        <g
           style="fill:#000000"
           id="g6137" />
        <g
           style="fill:#000000"
           id="g6139" />
        <g
           style="fill:#000000"
           id="g6141" />
        <g
           style="fill:#000000"
           id="g6143" />
        <g
           style="fill:#000000"
           id="g6145" />
        <g
           style="fill:#000000"
           id="g6147" />
        <g
           style="fill:#000000"
           id="g6149" />
        <g
           style="fill:#000000"
           id="g6151" />
        <g
           style="fill:#000000"
           id="g6153" />
        <g
           style="fill:#000000"
           id="g6155" />
        <g
           style="fill:#000000"
           id="g6157" />
        <g
           style="fill:#000000"
           id="g6159" />
        <g
           style="fill:#000000"
           id="g6161" />
        <g
           style="fill:#000000"
           id="g6163" />
        <g
           style="fill:#000000"
           id="g6165" />
        <g
           transform="matrix(0.88491885,0,0,0.88491885,-54.54819,134.40149)"
           id="g6417">
          <path
             inkscape:connector-curvature="0"
             style="opacity:1;vector-effect:none;fill:#ececec;fill-opacity:1;stroke:none;stroke-width:5.41295958;stroke-linecap:round;stroke-linejoin:round;stroke-miterlimit:4;stroke-dasharray:none;stroke-dashoffset:0;stroke-opacity:1;paint-order:markers fill stroke"
             d="m 248.46094,193.28906 c -0.13269,0.0174 -0.26035,0.0705 -0.36719,0.16016 -0.21308,0.17867 -0.30433,0.466 -0.23242,0.73437 l 1.57226,5.86914 -15.23242,5.30079 -24.66601,-2.62696 c -1.14112,-0.0158 -2.19497,0.85194 -2.39844,1.97656 l -0.63867,3.5254 c -0.20334,1.1239 0.47981,2.3075 1.55468,2.69336 l 24.28711,6.2539 1.61328,0.25977 3.34961,-0.50391 15.84375,-3.02539 1.57227,5.86914 c 0.0721,0.26907 0.29449,0.47133 0.56836,0.51953 0.27475,0.0487 0.55184,-0.0669 0.71094,-0.29492 l 11.78906,-16.87305 c 0.24202,-0.3473 0.10026,-0.88085 -0.2832,-1.06054 l -18.64649,-8.71875 c -0.12588,-0.0589 -0.26382,-0.076 -0.39648,-0.0586 z"
             transform="matrix(0.36143391,-1.3488899,1.3488899,0.36143391,-342.49974,140.57503)"
             id="rect6193-0" />
          <path
             inkscape:connector-curvature="0"
             style="opacity:1;vector-effect:none;fill:#000000;fill-opacity:1;stroke:none;stroke-width:5.41295958;stroke-linecap:round;stroke-linejoin:round;stroke-miterlimit:4;stroke-dasharray:none;stroke-dashoffset:0;stroke-opacity:1;paint-order:markers fill stroke"
             d="m 248.46094,193.28906 c -0.13268,0.0174 -0.2603,0.0707 -0.36719,0.16016 -0.21308,0.17867 -0.30433,0.466 -0.23242,0.73437 l 1.57226,5.86914 -15.23242,5.30079 -24.66601,-2.62696 c -1.14112,-0.0158 -2.19497,0.85194 -2.39844,1.97656 l -0.63867,3.5254 c -0.20334,1.12391 0.4798,2.3075 1.55468,2.69336 l 24.28711,6.2539 1.61328,0.25977 3.34961,-0.50391 15.84375,-3.02539 1.57227,5.86914 c 0.0721,0.26907 0.29449,0.47133 0.56836,0.51953 0.27475,0.0487 0.55184,-0.0669 0.71094,-0.29492 l 11.78906,-16.87305 c 0.24203,-0.3473 0.10005,-0.88078 -0.2832,-1.06054 l -18.64649,-8.71875 c -0.12588,-0.0589 -0.26381,-0.076 -0.39648,-0.0586 z m 1.18164,2.00977 16.48242,7.70508 -10.41992,14.91601 -1.33203,-4.9707 c -0.0906,-0.33824 -0.41419,-0.56116 -0.76172,-0.52734 l -16.66992,3.1621 -2.71875,0.48438 -1.63477,-0.26758 -24.05078,-6.22851 c -0.41273,-0.14818 -0.70706,-0.65594 -0.62891,-1.08789 l 0.63672,-3.52735 c 0.0782,-0.43195 0.53222,-0.80466 0.9707,-0.79883 l 24.71094,2.59375 0.33594,-0.0508 16.01758,-5.59765 c 0.31857,-0.14467 0.48516,-0.49771 0.39453,-0.83594 z"
             transform="matrix(0.36143391,-1.3488899,1.3488899,0.36143391,-342.49974,140.57503)"
             id="rect6193" />
        </g>
        <g
           id="g6423"
           transform="matrix(-0.88491885,0,0,-0.88491885,84.633604,-16.673228)">
          <path
             id="path6419"
             transform="matrix(0.36143391,-1.3488899,1.3488899,0.36143391,-342.49974,140.57503)"
             d="m 248.46094,193.28906 c -0.13269,0.0174 -0.26035,0.0705 -0.36719,0.16016 -0.21308,0.17867 -0.30433,0.466 -0.23242,0.73437 l 1.57226,5.86914 -15.23242,5.30079 -24.66601,-2.62696 c -1.14112,-0.0158 -2.19497,0.85194 -2.39844,1.97656 l -0.63867,3.5254 c -0.20334,1.1239 0.47981,2.3075 1.55468,2.69336 l 24.28711,6.2539 1.61328,0.25977 3.34961,-0.50391 15.84375,-3.02539 1.57227,5.86914 c 0.0721,0.26907 0.29449,0.47133 0.56836,0.51953 0.27475,0.0487 0.55184,-0.0669 0.71094,-0.29492 l 11.78906,-16.87305 c 0.24202,-0.3473 0.10026,-0.88085 -0.2832,-1.06054 l -18.64649,-8.71875 c -0.12588,-0.0589 -0.26382,-0.076 -0.39648,-0.0586 z"
             style="opacity:1;vector-effect:none;fill:#ececec;fill-opacity:1;stroke:none;stroke-width:5.41295958;stroke-linecap:round;stroke-linejoin:round;stroke-miterlimit:4;stroke-dasharray:none;stroke-dashoffset:0;stroke-opacity:1;paint-order:markers fill stroke"
             inkscape:connector-curvature="0" />
          <path
             id="path6421"
             transform="matrix(0.36143391,-1.3488899,1.3488899,0.36143391,-342.49974,140.57503)"
             d="m 248.46094,193.28906 c -0.13268,0.0174 -0.2603,0.0707 -0.36719,0.16016 -0.21308,0.17867 -0.30433,0.466 -0.23242,0.73437 l 1.57226,5.86914 -15.23242,5.30079 -24.66601,-2.62696 c -1.14112,-0.0158 -2.19497,0.85194 -2.39844,1.97656 l -0.63867,3.5254 c -0.20334,1.12391 0.4798,2.3075 1.55468,2.69336 l 24.28711,6.2539 1.61328,0.25977 3.34961,-0.50391 15.84375,-3.02539 1.57227,5.86914 c 0.0721,0.26907 0.29449,0.47133 0.56836,0.51953 0.27475,0.0487 0.55184,-0.0669 0.71094,-0.29492 l 11.78906,-16.87305 c 0.24203,-0.3473 0.10005,-0.88078 -0.2832,-1.06054 l -18.64649,-8.71875 c -0.12588,-0.0589 -0.26381,-0.076 -0.39648,-0.0586 z m 1.18164,2.00977 16.48242,7.70508 -10.41992,14.91601 -1.33203,-4.9707 c -0.0906,-0.33824 -0.41419,-0.56116 -0.76172,-0.52734 l -16.66992,3.1621 -2.71875,0.48438 -1.63477,-0.26758 -24.05078,-6.22851 c -0.41273,-0.14818 -0.70706,-0.65594 -0.62891,-1.08789 l 0.63672,-3.52735 c 0.0782,-0.43195 0.53222,-0.80466 0.9707,-0.79883 l 24.71094,2.59375 0.33594,-0.0508 16.01758,-5.59765 c 0.31857,-0.14467 0.48516,-0.49771 0.39453,-0.83594 z"
             style="opacity:1;vector-effect:none;fill:#000000;fill-opacity:1;stroke:none;stroke-width:5.41295958;stroke-linecap:round;stroke-linejoin:round;stroke-miterlimit:4;stroke-dasharray:none;stroke-dashoffset:0;stroke-opacity:1;paint-order:markers fill stroke"
             inkscape:connector-curvature="0" />
        </g>
      </g>
      <g
         id="g6019"
         transform="matrix(0.03598166,0,0,0.03598166,24.301153,85.689315)">
        <circle
           id="circle5939"
           r="225.79201"
           cy="225.79201"
           cx="225.79201"
           style="fill:#999999" />
        <path
           sodipodi:nodetypes="cccccsscccccsccc"
           id="path5941"
           d="M 292.22313,111.98255 C 290.32125,113.61306 207.36,186.368 207.36,186.368 l -9.728,3.584 -38.27111,8.00212 L 189.44,271.36 h -64.512 c -2.048,0 -3.584,1.536 -3.584,3.584 v 26.624 l 15.36,15.36 H 96.256 v 37.888 l 93.696,93.696 c 11.776,2.048 23.552,3.072 35.84,3.072 102.4,0 188.928,-68.096 216.576,-161.28 l -31.232,-31.232 z"
           style="opacity:0.1;enable-background:new"
           inkscape:connector-curvature="0" />
        <polygon
           id="polygon5943"
           points="153.6,345.088 153.6,316.928 96.256,316.928 96.256,345.088 96.256,355.328 153.6,355.328 "
           style="fill:#44c4a1" />
        <polygon
           id="polygon5945"
           points="254.464,345.088 254.464,316.928 197.12,316.928 197.12,345.088 197.12,355.328 254.464,355.328 "
           style="fill:#fcd462" />
        <polygon
           id="polygon5947"
           points="355.328,345.088 355.328,316.928 297.984,316.928 297.984,345.088 297.984,355.328 355.328,355.328 "
           style="fill:#27a2db" />
        <path
           id="path5949"
           d="m 326.656,271.36 h -97.28 v -21.504 h -7.168 v 21.504 h -97.28 c -2.048,0 -3.584,1.536 -3.584,3.584 v 26.624 h 7.168 v -23.04 h 93.696 v 23.04 h 7.168 v -23.04 h 93.696 v 23.04 h 7.168 v -26.624 c 0,-2.048 -1.536,-3.584 -3.584,-3.584 z"
           style="fill:#64798a"
           inkscape:connector-curvature="0" />
        <g
           id="g5951" />
        <g
           id="g5953" />
        <g
           id="g5955" />
        <g
           id="g5957" />
        <g
           id="g5959" />
        <g
           id="g5961" />
        <g
           id="g5963" />
        <g
           id="g5965" />
        <g
           id="g5967" />
        <g
           id="g5969" />
        <g
           id="g5971" />
        <g
           id="g5973" />
        <g
           id="g5975" />
        <g
           id="g5977" />
        <g
           id="g5979" />
        <g
           transform="matrix(7.3532831,0,0,7.3532831,-1313.698,-1604.1317)"
           id="g6011">
          <g
             id="g5981" />
          <g
             id="g5983" />
          <g
             id="g5985" />
          <g
             id="g5987" />
          <g
             id="g5989" />
          <g
             id="g5991" />
          <g
             id="g5993" />
          <g
             id="g5995" />
          <g
             id="g5997" />
          <g
             id="g5999" />
          <g
             id="g6001" />
          <g
             id="g6003" />
          <g
             id="g6005" />
          <g
             id="g6007" />
          <g
             id="g6009" />
        </g>
        <g
           transform="matrix(0.11209256,0,0,0.11209256,190.73726,135.30148)"
           id="g6017">
          <path
             id="path6013"
             d="M 1002.939,323.38157 V 27.522229 H 901.35336 c -38.52385,0 -73.04017,-23.4055 -87.65849,-59.10569 -0.19119,-0.37502 -0.31619,-0.75004 -0.50003,-1.19124 -14.6845,-35.51635 -6.83855,-76.238829 20.33183,-103.409219 l 71.84893,-71.84893 -209.2009,-209.2009 -71.78275,71.84893 c -27.22921,27.17038 -67.89286,35.01633 -103.46805,20.33183 -0.37502,-0.12501 -0.75003,-0.3162 -1.19123,-0.4412 -35.64136,-14.68451 -59.10569,-49.13464 -59.10569,-87.65849 v -101.5856 H 164.83381 v 101.5856 c 0,38.52385 -23.46432,72.97398 -59.10569,87.65849 -0.44119,0.125 -0.81621,0.31619 -1.19123,0.4412 -35.575182,14.6845 -76.238842,6.83855 -103.4680522,-20.33183 l -71.7827498,-71.84893 -209.200908,209.2009 71.84894,71.84893 c 27.17038,27.17039 35.01633,67.892869 20.33183,103.409219 -0.19119,0.4412 -0.31619,0.81622 -0.50003,1.19124 -14.61832,35.70019 -49.13463,59.10569 -87.65844,59.10569 h -101.5857 V 323.38157 h 101.5857 c 38.52381,0 73.04012,23.4055 87.65844,59.10569 0.19119,0.37502 0.31619,0.75004 0.50003,1.19123 14.6845,35.51636 6.83855,76.23884 -20.33183,103.40923 l -71.84894,71.84892 209.200908,209.20095 71.7827498,-71.849 c 27.2292102,-27.17035 67.8928702,-35.0163 103.4680522,-20.3318 0.37502,0.125 0.75004,0.3162 1.19123,0.4412 35.64137,14.6845 59.10569,49.1346 59.10569,87.6585 v 101.6518 h 295.79317 v -101.6518 c 0,-38.5312 23.46433,-72.974 59.10569,-87.6585 0.4412,-0.125 0.81621,-0.3162 1.19123,-0.4412 35.57519,-14.6845 76.23884,-6.83855 103.46805,20.3318 l 71.78275,71.849 209.2009,-209.20095 -71.84893,-71.84892 c -27.17038,-27.17039 -35.01633,-67.89287 -20.33183,-103.40923 0.19119,-0.44119 0.31619,-0.81621 0.50003,-1.19123 14.61832,-35.70019 49.13464,-59.10569 87.65849,-59.10569 z"
             style="fill:#bdc3c7;stroke-width:7.35328293"
             inkscape:connector-curvature="0" />
          <path
             id="path6015"
             d="m 626.45087,175.46293 c 0,-173.309531 -140.49183,-313.74253 -313.74253,-313.74253 -173.25071,0 -313.7425322,140.432999 -313.7425322,313.74253 0,173.30953 140.4918222,313.74253 313.7425322,313.74253 173.2507,-0.007 313.74253,-140.433 313.74253,-313.74253"
             style="fill:#808080;stroke-width:7.35328293"
             inkscape:connector-curvature="0" />
        </g>
      </g>
    </g>
    <text
       xml:space="preserve"
       style="font-style:normal;font-weight:normal;font-size:10.58333302px;line-height:1.25;font-family:sans-serif;letter-spacing:0px;word-spacing:0px;fill:#3c8cea;fill-opacity:1;stroke:none;stroke-width:0.13282083;stroke-opacity:1;stroke-miterlimit:4;stroke-dasharray:none;"
       x="51.59375"
       y="267.21887"
       id="text5242"><tspan
         sodipodi:role="line"
         x="51.59375"
         y="267.21887"
         style="stroke-width:0.13282083;fill:#3c8cea;fill-opacity:1;stroke:none;stroke-opacity:1;stroke-miterlimit:4;stroke-dasharray:none;font-weight:bold"
         id="tspan5244">Fluent Serializer</tspan><tspan
         sodipodi:role="line"
         x="51.59375"
         y="280.44803"
         style="font-size:7.05555534px;stroke-width:0.13282083;fill:#673ab7;fill-opacity:1;stroke:none;stroke-opacity:1;stroke-miterlimit:4;stroke-dasharray:none"
         id="tspan5248">A different take on serializing for dotnet</tspan></text>
  </g>
</svg>
