<?xml version="1.0" encoding="UTF-8"?>
<svg width="800" height="200" version="1.1" viewBox="0 0 211.67 52.917" xmlns="http://www.w3.org/2000/svg">
	<defs>
		<style>.cls-1{fill:#f1734d;}.cls-1,.cls-2{fill-rule:evenodd;}.cls-2{fill:#9293a5;}.cls-3{fill:#f94060;}.cls-4{fill:#96ccee;}</style>
		<style>.cls-1{fill:#5c2d91;}.cls-2,.cls-3{fill:#fff;}.cls-2{opacity:0.1;}</style>
		<style>.cls-1{fill:#f1734d;}.cls-1,.cls-2{fill-rule:evenodd;}.cls-2{fill:#9293a5;}.cls-3{fill:#f94060;}.cls-4{fill:#96ccee;}</style>
		<style>.cls-1{fill:#5c2d91;}.cls-2,.cls-3{fill:#fff;}.cls-2{opacity:0.1;}</style>
		<style>.cls-1{fill:#f1734d;}.cls-1,.cls-2{fill-rule:evenodd;}.cls-2{fill:#9293a5;}.cls-3{fill:#f94060;}.cls-4{fill:#96ccee;}</style>
		<style>.cls-1{fill:#5c2d91;}.cls-2,.cls-3{fill:#fff;}.cls-2{opacity:0.1;}</style>
	</defs>
	<g transform="translate(0 -244.08)">
		<g id="Logo-default" transform="translate(-5.4313 176.73)" image-rendering="optimizeQuality">
			<title>Logo-default</title>
			<g transform="translate(1.8172 7.8307)">
				<rect x="10.103" y="65.478" width="17.198" height="17.198" fill-opacity="0" style="paint-order:markers fill stroke"/>
			</g>
			<g transform="translate(25.63 7.8307)">
				<rect x="10.103" y="65.478" width="17.198" height="17.198" fill-opacity="0" style="paint-order:markers fill stroke"/>
			</g>
			<g transform="translate(13.723 19.737)">
				<rect x="10.103" y="65.478" width="17.198" height="17.198" fill-opacity="0" style="paint-order:markers fill stroke"/>
			</g>
			<g transform="translate(1.8172 31.643)">
				<rect x="10.103" y="65.478" width="17.198" height="17.198" fill-opacity="0" style="paint-order:markers fill stroke"/>
			</g>
			<g transform="translate(25.63 31.643)">
				<rect x="10.103" y="65.478" width="17.198" height="17.198" fill-opacity="0" style="paint-order:markers fill stroke"/>
			</g>
			<g transform="matrix(.26458 0 0 .26458 13.111 73.573)">
				<path d="m5.112 0.011c-2.802 0-5.073 2.273-5.073 5.074v53.841c0 2.803 2.272 5.074 5.073 5.074h45.775c2.801 0 5.074-2.271 5.074-5.074v-38.605l-18.904-20.31z" clip-rule="evenodd" fill="#3c8cea" fill-rule="evenodd"/>
				<path d="m10.133 37.439h21.564v2.059h-21.564zm0 4.801h21.564v2.057h-21.564zm0 4.801h21.564v2.057h-21.564zm0 4.8h12.233v2.058h-12.233z" fill="#fff"/>
				<g clip-rule="evenodd" fill-rule="evenodd">
					<path d="m55.96 20.377v1h-12.799s-6.312-1.26-6.129-6.707c0 0 0.208 5.707 6.004 5.707z" fill="#2d6fe4"/>
					<path d="m37.058 0.025v14.561c0 1.656 1.104 5.791 6.104 5.791h12.799z" fill="#fff" opacity=".5"/>
				</g>
			</g>
			<g transform="matrix(.26458 0 0 .26458 36.923 97.118)">
				<path d="m5.112 0.011c-2.802 0-5.073 2.273-5.073 5.074v53.841c0 2.803 2.272 5.074 5.073 5.074h45.775c2.801 0 5.074-2.271 5.074-5.074v-38.605l-18.904-20.31z" clip-rule="evenodd" fill="#3c8cea" fill-rule="evenodd"/>
				<path d="m10.133 37.439h21.564v2.059h-21.564zm0 4.801h21.564v2.057h-21.564zm0 4.801h21.564v2.057h-21.564zm0 4.8h12.233v2.058h-12.233z" fill="#fff"/>
				<g clip-rule="evenodd" fill-rule="evenodd">
					<path d="m55.96 20.377v1h-12.799s-6.312-1.26-6.129-6.707c0 0 0.208 5.707 6.004 5.707z" fill="#2d6fe4"/>
					<path d="m37.058 0.025v14.561c0 1.656 1.104 5.791 6.104 5.791h12.799z" fill="#fff" opacity=".5"/>
				</g>
			</g>
			<g transform="translate(-55.321 22.736)">
				<g transform="translate(2.5413 .13375)">
					<g transform="matrix(.26458 0 0 .26458 65.888 74.258)">
						<path d="m5.113-0.026c-2.803 0-5.074 2.272-5.074 5.074v53.841c0 2.803 2.271 5.074 5.074 5.074h45.773c2.801 0 5.074-2.271 5.074-5.074v-38.605l-18.901-20.31h-31.946z" fill="#673ab7"/>
						<path d="m55.977 20.352v1h-12.799s-6.312-1.26-6.129-6.707c0 0 0.208 5.707 6.004 5.707z" fill="#45317c"/>
						<path d="m37.074 0v14.561c0 1.656 1.104 5.791 6.104 5.791h12.799z" enable-background="new    " fill="#fff" opacity=".5"/>
						<path d="m12.739 39.41c0-0.4-0.3-0.7-0.7-0.7h-1.3c-0.4 0-0.7 0.3-0.7 0.7v1.3c0 0.4 0.3 0.7 0.7 0.7h1.3c0.4 0 0.7-0.3 0.7-0.7zm18.8 0c0-0.4-0.3-0.7-0.7-0.7h-15.7c-0.4 0-0.7 0.3-0.7 0.7v1.3c0 0.4 0.3 0.7 0.7 0.7h15.7c0.4 0 0.7-0.3 0.7-0.7zm-18.8 6.3c0-0.4-0.3-0.7-0.7-0.7h-1.3c-0.4 0-0.7 0.3-0.7 0.7v1.3c0 0.4 0.3 0.7 0.7 0.7h1.3c0.4 0 0.7-0.3 0.7-0.7zm18.8 0c0-0.4-0.4-0.7-0.8-0.7h-15.5c-0.4 0-0.8 0.3-0.8 0.7v1.3c0 0.4 0.4 0.7 0.8 0.7h15.5c0.4 0 0.8-0.3 0.8-0.7zm-18.8 6.2c0-0.4-0.3-0.7-0.7-0.7h-1.3c-0.4 0-0.7 0.3-0.7 0.7v1.3c0 0.4 0.3 0.7 0.7 0.7h1.3c0.4 0 0.7-0.3 0.7-0.7zm18.8 0c0-0.4-0.3-0.7-0.7-0.7h-15.7c-0.4 0-0.7 0.3-0.7 0.7v1.3c0 0.4 0.3 0.7 0.7 0.7h15.7c0.4 0 0.7-0.3 0.7-0.7z" fill="#fff"/>
					</g>
					<g transform="matrix(.13072 0 0 .13072 66.566 82.104)">
						<circle class="cls-1" cx="32" cy="32" r="32" fill="#5c2d91"/>
						<g fill="#fff">
							<path class="cls-2" d="m9.82 9a32 32 0 1 0 45.18 45.18z" opacity=".1"/>
							<path class="cls-3" d="m7.4 41.25a1.35 1.35 0 0 1-1-0.42 1.38 1.38 0 0 1-0.41-1 1.4 1.4 0 0 1 0.41-1 1.34 1.34 0 0 1 1-0.43 1.37 1.37 0 0 1 1 0.43 1.39 1.39 0 0 1 0.42 1 1.37 1.37 0 0 1-0.42 1 1.38 1.38 0 0 1-1 0.42z"/>
							<path class="cls-3" d="m27.27 41h-2.62l-9.37-14.54a6.06 6.06 0 0 1-0.58-1.14h-0.08a18.71 18.71 0 0 1 0.1 2.5v13.18h-2.13v-18.23h2.77l9.12 14.28q0.57 0.89 0.74 1.22h0.05a19.29 19.29 0 0 1-0.13-2.68v-12.82h2.13z"/>
							<path class="cls-3" d="m41.69 41h-9.69v-18.23h9.24v1.93h-7.06v6.06h6.58v1.92h-6.58v6.32h7.52z"/>
							<path class="cls-3" d="m56 24.7h-5.3v16.3h-2.13v-16.3h-5.24v-1.93h12.67z"/>
						</g>
					</g>
				</g>
			</g>
			<g transform="translate(-31.508 -.8092)">
				<g transform="translate(2.5413 .13375)">
					<g transform="matrix(.26458 0 0 .26458 65.888 74.258)">
						<path d="m5.113-0.026c-2.803 0-5.074 2.272-5.074 5.074v53.841c0 2.803 2.271 5.074 5.074 5.074h45.773c2.801 0 5.074-2.271 5.074-5.074v-38.605l-18.901-20.31h-31.946z" fill="#673ab7"/>
						<path d="m55.977 20.352v1h-12.799s-6.312-1.26-6.129-6.707c0 0 0.208 5.707 6.004 5.707z" fill="#45317c"/>
						<path d="m37.074 0v14.561c0 1.656 1.104 5.791 6.104 5.791h12.799z" enable-background="new    " fill="#fff" opacity=".5"/>
						<path d="m12.739 39.41c0-0.4-0.3-0.7-0.7-0.7h-1.3c-0.4 0-0.7 0.3-0.7 0.7v1.3c0 0.4 0.3 0.7 0.7 0.7h1.3c0.4 0 0.7-0.3 0.7-0.7zm18.8 0c0-0.4-0.3-0.7-0.7-0.7h-15.7c-0.4 0-0.7 0.3-0.7 0.7v1.3c0 0.4 0.3 0.7 0.7 0.7h15.7c0.4 0 0.7-0.3 0.7-0.7zm-18.8 6.3c0-0.4-0.3-0.7-0.7-0.7h-1.3c-0.4 0-0.7 0.3-0.7 0.7v1.3c0 0.4 0.3 0.7 0.7 0.7h1.3c0.4 0 0.7-0.3 0.7-0.7zm18.8 0c0-0.4-0.4-0.7-0.8-0.7h-15.5c-0.4 0-0.8 0.3-0.8 0.7v1.3c0 0.4 0.4 0.7 0.8 0.7h15.5c0.4 0 0.8-0.3 0.8-0.7zm-18.8 6.2c0-0.4-0.3-0.7-0.7-0.7h-1.3c-0.4 0-0.7 0.3-0.7 0.7v1.3c0 0.4 0.3 0.7 0.7 0.7h1.3c0.4 0 0.7-0.3 0.7-0.7zm18.8 0c0-0.4-0.3-0.7-0.7-0.7h-15.7c-0.4 0-0.7 0.3-0.7 0.7v1.3c0 0.4 0.3 0.7 0.7 0.7h15.7c0.4 0 0.7-0.3 0.7-0.7z" fill="#fff"/>
					</g>
					<g transform="matrix(.13072 0 0 .13072 66.566 82.104)">
						<circle class="cls-1" cx="32" cy="32" r="32" fill="#5c2d91"/>
						<g fill="#fff">
							<path class="cls-2" d="m9.82 9a32 32 0 1 0 45.18 45.18z" opacity=".1"/>
							<path class="cls-3" d="m7.4 41.25a1.35 1.35 0 0 1-1-0.42 1.38 1.38 0 0 1-0.41-1 1.4 1.4 0 0 1 0.41-1 1.34 1.34 0 0 1 1-0.43 1.37 1.37 0 0 1 1 0.43 1.39 1.39 0 0 1 0.42 1 1.37 1.37 0 0 1-0.42 1 1.38 1.38 0 0 1-1 0.42z"/>
							<path class="cls-3" d="m27.27 41h-2.62l-9.37-14.54a6.06 6.06 0 0 1-0.58-1.14h-0.08a18.71 18.71 0 0 1 0.1 2.5v13.18h-2.13v-18.23h2.77l9.12 14.28q0.57 0.89 0.74 1.22h0.05a19.29 19.29 0 0 1-0.13-2.68v-12.82h2.13z"/>
							<path class="cls-3" d="m41.69 41h-9.69v-18.23h9.24v1.93h-7.06v6.06h6.58v1.92h-6.58v6.32h7.52z"/>
							<path class="cls-3" d="m56 24.7h-5.3v16.3h-2.13v-16.3h-5.24v-1.93h12.67z"/>
						</g>
					</g>
				</g>
			</g>
			<g transform="matrix(.049037 .18301 -.18301 .049037 42.522 88.204)">
				<g transform="matrix(.88492 0 0 .88492 -54.548 134.4)">
					<path transform="matrix(.36143 -1.3489 1.3489 .36143 -342.5 140.58)" d="m248.46 193.29c-0.13269 0.0174-0.26035 0.0705-0.36719 0.16016-0.21308 0.17867-0.30433 0.466-0.23242 0.73437l1.5723 5.8691-15.232 5.3008-24.666-2.627c-1.1411-0.0158-2.195 0.85194-2.3984 1.9766l-0.63867 3.5254c-0.20334 1.1239 0.47981 2.3075 1.5547 2.6934l24.287 6.2539 1.6133 0.25977 3.3496-0.50391 15.844-3.0254 1.5723 5.8691c0.0721 0.26907 0.29449 0.47133 0.56836 0.51953 0.27475 0.0487 0.55184-0.0669 0.71094-0.29492l11.789-16.873c0.24202-0.3473 0.10026-0.88085-0.2832-1.0605l-18.646-8.7188c-0.12588-0.0589-0.26382-0.076-0.39648-0.0586z" fill="#ececec" style="paint-order:markers fill stroke"/>
					<path transform="matrix(.36143 -1.3489 1.3489 .36143 -342.5 140.58)" d="m248.46 193.29c-0.13268 0.0174-0.2603 0.0707-0.36719 0.16016-0.21308 0.17867-0.30433 0.466-0.23242 0.73437l1.5723 5.8691-15.232 5.3008-24.666-2.627c-1.1411-0.0158-2.195 0.85194-2.3984 1.9766l-0.63867 3.5254c-0.20334 1.1239 0.4798 2.3075 1.5547 2.6934l24.287 6.2539 1.6133 0.25977 3.3496-0.50391 15.844-3.0254 1.5723 5.8691c0.0721 0.26907 0.29449 0.47133 0.56836 0.51953 0.27475 0.0487 0.55184-0.0669 0.71094-0.29492l11.789-16.873c0.24203-0.3473 0.10005-0.88078-0.2832-1.0605l-18.646-8.7188c-0.12588-0.0589-0.26381-0.076-0.39648-0.0586zm1.1816 2.0098 16.482 7.7051-10.42 14.916-1.332-4.9707c-0.0906-0.33824-0.41419-0.56116-0.76172-0.52734l-16.67 3.1621-2.7188 0.48438-1.6348-0.26758-24.051-6.2285c-0.41273-0.14818-0.70706-0.65594-0.62891-1.0879l0.63672-3.5274c0.0782-0.43195 0.53222-0.80466 0.9707-0.79883l24.711 2.5938 0.33594-0.0508 16.018-5.5976c0.31857-0.14467 0.48516-0.49771 0.39453-0.83594z" style="paint-order:markers fill stroke"/>
				</g>
				<g transform="matrix(-.88492 0 0 -.88492 84.634 -16.673)">
					<path transform="matrix(.36143 -1.3489 1.3489 .36143 -342.5 140.58)" d="m248.46 193.29c-0.13269 0.0174-0.26035 0.0705-0.36719 0.16016-0.21308 0.17867-0.30433 0.466-0.23242 0.73437l1.5723 5.8691-15.232 5.3008-24.666-2.627c-1.1411-0.0158-2.195 0.85194-2.3984 1.9766l-0.63867 3.5254c-0.20334 1.1239 0.47981 2.3075 1.5547 2.6934l24.287 6.2539 1.6133 0.25977 3.3496-0.50391 15.844-3.0254 1.5723 5.8691c0.0721 0.26907 0.29449 0.47133 0.56836 0.51953 0.27475 0.0487 0.55184-0.0669 0.71094-0.29492l11.789-16.873c0.24202-0.3473 0.10026-0.88085-0.2832-1.0605l-18.646-8.7188c-0.12588-0.0589-0.26382-0.076-0.39648-0.0586z" fill="#ececec" style="paint-order:markers fill stroke"/>
					<path transform="matrix(.36143 -1.3489 1.3489 .36143 -342.5 140.58)" d="m248.46 193.29c-0.13268 0.0174-0.2603 0.0707-0.36719 0.16016-0.21308 0.17867-0.30433 0.466-0.23242 0.73437l1.5723 5.8691-15.232 5.3008-24.666-2.627c-1.1411-0.0158-2.195 0.85194-2.3984 1.9766l-0.63867 3.5254c-0.20334 1.1239 0.4798 2.3075 1.5547 2.6934l24.287 6.2539 1.6133 0.25977 3.3496-0.50391 15.844-3.0254 1.5723 5.8691c0.0721 0.26907 0.29449 0.47133 0.56836 0.51953 0.27475 0.0487 0.55184-0.0669 0.71094-0.29492l11.789-16.873c0.24203-0.3473 0.10005-0.88078-0.2832-1.0605l-18.646-8.7188c-0.12588-0.0589-0.26381-0.076-0.39648-0.0586zm1.1816 2.0098 16.482 7.7051-10.42 14.916-1.332-4.9707c-0.0906-0.33824-0.41419-0.56116-0.76172-0.52734l-16.67 3.1621-2.7188 0.48438-1.6348-0.26758-24.051-6.2285c-0.41273-0.14818-0.70706-0.65594-0.62891-1.0879l0.63672-3.5274c0.0782-0.43195 0.53222-0.80466 0.9707-0.79883l24.711 2.5938 0.33594-0.0508 16.018-5.5976c0.31857-0.14467 0.48516-0.49771 0.39453-0.83594z" style="paint-order:markers fill stroke"/>
				</g>
			</g>
			<g transform="matrix(.035982 0 0 .035982 24.301 85.689)">
				<circle cx="225.79" cy="225.79" r="225.79" fill="#999"/>
				<path d="m292.22 111.98c-1.9019 1.6305-84.863 74.385-84.863 74.385l-9.728 3.584-38.271 8.0021 30.079 73.406h-64.512c-2.048 0-3.584 1.536-3.584 3.584v26.624l15.36 15.36h-40.448v37.888l93.696 93.696c11.776 2.048 23.552 3.072 35.84 3.072 102.4 0 188.93-68.096 216.58-161.28l-31.232-31.232z" enable-background="new" opacity=".1"/>
				<polygon points="153.6 345.09 153.6 316.93 96.256 316.93 96.256 345.09 96.256 355.33 153.6 355.33" fill="#44c4a1"/>
				<polygon points="254.46 345.09 254.46 316.93 197.12 316.93 197.12 345.09 197.12 355.33 254.46 355.33" fill="#fcd462"/>
				<polygon points="355.33 345.09 355.33 316.93 297.98 316.93 297.98 345.09 297.98 355.33 355.33 355.33" fill="#27a2db"/>
				<path d="m326.66 271.36h-97.28v-21.504h-7.168v21.504h-97.28c-2.048 0-3.584 1.536-3.584 3.584v26.624h7.168v-23.04h93.696v23.04h7.168v-23.04h93.696v23.04h7.168v-26.624c0-2.048-1.536-3.584-3.584-3.584z" fill="#64798a"/>
				<g transform="matrix(7.3533 0 0 7.3533 -1313.7 -1604.1)"></g>
				<g transform="matrix(.11209 0 0 .11209 190.74 135.3)" stroke-width="7.3533">
					<path d="m1002.9 323.38v-295.86h-101.59c-38.524 0-73.04-23.406-87.658-59.106-0.19119-0.37502-0.31619-0.75004-0.50003-1.1912-14.684-35.516-6.8386-76.239 20.332-103.41l71.849-71.849-209.2-209.2-71.783 71.849c-27.229 27.17-67.893 35.016-103.47 20.332-0.37502-0.12501-0.75003-0.3162-1.1912-0.4412-35.641-14.685-59.106-49.135-59.106-87.658v-101.59h-295.79v101.59c0 38.524-23.464 72.974-59.106 87.658-0.44119 0.125-0.81621 0.31619-1.1912 0.4412-35.575 14.684-76.239 6.8386-103.47-20.332l-71.783-71.849-209.2 209.2 71.849 71.849c27.17 27.17 35.016 67.893 20.332 103.41-0.19119 0.4412-0.31619 0.81622-0.50003 1.1912-14.618 35.7-49.135 59.106-87.658 59.106h-101.59v295.86h101.59c38.524 0 73.04 23.406 87.658 59.106 0.19119 0.37502 0.31619 0.75004 0.50003 1.1912 14.684 35.516 6.8386 76.239-20.332 103.41l-71.849 71.849 209.2 209.2 71.783-71.849c27.229-27.17 67.893-35.016 103.47-20.332 0.37502 0.125 0.75004 0.3162 1.1912 0.4412 35.641 14.684 59.106 49.135 59.106 87.658v101.65h295.79v-101.65c0-38.531 23.464-72.974 59.106-87.658 0.4412-0.125 0.81621-0.3162 1.1912-0.4412 35.575-14.684 76.239-6.8386 103.47 20.332l71.783 71.849 209.2-209.2-71.849-71.849c-27.17-27.17-35.016-67.893-20.332-103.41 0.19119-0.44119 0.31619-0.81621 0.50003-1.1912 14.618-35.7 49.135-59.106 87.658-59.106z" fill="#bdc3c7"/>
					<path d="m626.45 175.46c0-173.31-140.49-313.74-313.74-313.74-173.25 0-313.74 140.43-313.74 313.74 0 173.31 140.49 313.74 313.74 313.74 173.25-7e-3 313.74-140.43 313.74-313.74" fill="#808080"/>
				</g>
			</g>
		</g>
		<text x="51.59375" y="267.21887" font-family="sans-serif" font-size="10.583px" letter-spacing="0px" stroke-width=".13282" word-spacing="0px" style="line-height:1.25" xml:space="preserve"><tspan x="51.59375" y="267.21887" fill="#3c8cea" font-weight="bold">Fluent Serializer</tspan><tspan x="51.59375" y="280.44803" fill="#00163f" font-size="7.0556px">A different take on serializing for dotnet</tspan></text>
	</g>
</svg>
